<?xml version="1.0" encoding="utf-8"?>
<!-- Generator: Adobe Illustrator 23.0.0, SVG Export Plug-In . SVG Version: 6.00 Build 0)  -->
<svg version="1.1" id="Calque_1" xmlns="http://www.w3.org/2000/svg" xmlns:xlink="http://www.w3.org/1999/xlink" x="0px" y="0px"
	 viewBox="0 0 595.28 841.89" style="enable-background:new 0 0 595.28 841.89;" xml:space="preserve">
<style type="text/css">
	.st0{fill:#FFFFFF;}
</style>
<g>
	<path d="M253.34,510.91c-1.15-1.4-2.31-2.81-3.78-4.6c-8.34-0.61-16.55-3.98-24.89-6.91c-3.13-1.1-6.32-2.07-9.53-2.92
		c-5.57-1.47-10.2-4.74-15.08-7.57c-4.65-2.69-9.42-5.22-14.28-7.51c-5.63-2.65-9.47-7.1-13.1-11.88c-0.77-1.02-1.67-2.03-2.72-2.75
		c-9.07-6.2-16.89-13.62-22.9-22.87c-0.32-0.5-1.03-0.74-1.5-1.16c-0.68-0.61-1.41-1.19-1.93-1.92c-7.8-10.86-14.1-22.56-19.2-34.88
		c-3.65-8.8-6.85-17.79-10.14-26.74c-0.61-1.67-1.3-3.08-2.86-3.99c-1.01-0.59-1.15-1.37-1.08-2.61c0.15-2.27-0.08-4.6-0.43-6.87
		c-0.94-6.18-2.03-12.34-3.07-18.6c-0.98-0.51-2.37-1.22-3.26-1.68c-0.22-1.23-0.13-2.18-0.56-2.76c-0.76-1.03-1.93-1.34-3.2-0.74
		c0-0.25,0-0.5,0-0.75c0.93-1.63,1.64-3.13,0.83-5.2c-0.84-2.16,0.41-4.35,2.75-5.83c0.79-0.5,1.66-0.9,2.54-1.2
		c2.73-0.94,3.51-1.77,3.17-4.73c-0.72-6.35,0.61-12.49,1.37-18.72c1.97-16.11,7-31.29,13.48-46.07c0.83-1.89,1.35-3.91,2.02-5.86
		c0.16-0.47,0.3-0.97,0.56-1.37c5.22-7.91,10.33-15.9,15.75-23.67c2.5-3.58,5.63-6.73,8.45-10.09c0.68-0.81,1.2-1.75,1.92-2.52
		c1.22-1.31,2.52-2.53,3.8-3.78c0.35-0.34,0.86-0.57,1.08-0.98c2.42-4.38,6.1-7.59,9.8-10.83c3.1-2.73,5.99-5.7,9.02-8.52
		c0.72-0.67,1.65-1.11,2.47-1.68c4.23-2.93,8.49-5.83,12.66-8.84c2.11-1.52,4.05-3.28,6.08-4.92c0.24-0.19,0.54-0.29,0.81-0.45
		c3.68-2.15,7.32-4.35,11.04-6.42c2.01-1.12,4.11-2.12,6.24-2.99c6.22-2.53,12.38-5.27,18.75-7.33c4.73-1.54,9.74-2.32,14.67-3.15
		c6.61-1.11,13.28-1.9,19.9-2.91c1.71-0.26,3.38-0.85,5.06-1.29c2.26,0,4.53,0,6.79,0c4.63,0.79,9.25,1.59,13.88,2.37
		c0.36,0.06,0.83,0.08,1.1-0.11c2.66-1.89,5.48-0.56,8.21-0.37c0.69,0.05,1.33,0.84,1.62,1.04c2.49,0.26,4.66,0.48,7.14,0.73
		c-1.68,1.18-3.03,2.08-4.33,3.04c-1.88,1.39-4.01,1.32-6.15,1.07c-2.69-0.31-5.37-0.85-7.8,0.97c-0.25,0.18-0.71,0.08-1.07,0.1
		c-1.5,0.07-3.15-0.24-4.47,0.28c-4.02,1.61-8.26,1.36-12.39,1.72c-9.26,0.81-18.09,3.46-26.99,5.81c-5.2,1.37-9.43,4.62-13.85,7.51
		c-2.14,1.4-4.41,2.65-6.71,3.78c-2.22,1.1-4.6,1.53-7.13,1.17c-1.05-0.15-2.41-0.03-3.25,0.54c-4.51,3.05-9.65,4.22-14.86,5.07
		c-6.52,1.07-11.5,4.71-16.31,8.86c-2.08,1.8-4.41,3.31-6.7,4.84c-2.05,1.37-4.13,2.63-5.19,5.03c-0.18,0.42-0.66,0.74-1.06,1.02
		c-4.62,3.25-8.41,7.29-11.94,11.68c-2.93,3.65-6.32,6.94-9.49,10.4c-0.55,0.6-1.07,1.23-1.55,1.89c-4.01,5.54-7.6,11.32-10.73,17.4
		c-1.75,3.4-4.13,6.48-5.79,9.91c-1.57,3.25-2.64,6.76-3.83,10.19c-2,5.74-4.02,11.49-5.83,17.29c-0.62,1.98-0.64,4.15-0.93,6.23
		c-0.1,0.74-0.05,1.54-0.35,2.19c-2.11,4.66-2.4,9.69-3.21,14.64c-1.34,8.14-0.84,16.28-0.64,24.43c0.04,1.76,0.11,3.52-0.01,5.27
		c-0.52,7.52,0.51,14.92,1.73,22.29c0.58,3.51,1.7,6.82,4.12,9.51c-1.67,2.62-1.56,3.85,0.41,6.02c0.29,0.32,0.43,0.87,0.45,1.32
		c0.38,6.91,2.74,13.24,5.72,19.38c0.4,0.83,1.19,1.47,1.65,2.28c0.64,1.13,1.56,2.32,1.6,3.51c0.14,3.6,1.93,6.25,4.18,8.8
		c0.89,1,1.53,2.23,2.22,3.39c1.29,2.15,2.45,4.38,3.82,6.48c2.13,3.26,4.5,6.37,5.02,10.41c0.05,0.36,0.55,0.78,0.95,0.96
		c3.41,1.57,6.46,3.45,7.27,7.53c0.05,0.27,0.32,0.55,0.56,0.73c5.86,4.39,9.95,10.43,14.81,15.75c0.75,0.82,1.93,1.26,2.91,1.88
		c0.92,0.57,1.9,1.07,2.76,1.73c1.27,0.97,2.43,2.07,3.67,3.06c3.14,2.51,6.22,5.09,9.46,7.45c2.36,1.72,4.96,3.1,7.43,4.68
		c1.31,0.84,2.55,1.81,3.87,2.63c1.08,0.68,2.17,1.54,3.37,1.78c5.28,1.05,10.04,3.41,14.87,5.61c2.78,1.27,5.73,2.24,8.38,3.73
		c1.57,0.88,3.11,1.47,4.83,1.79c0.39,0.07,0.87,0.4,1.04,0.75c1.37,2.69,3.9,1.82,6.08,2.06c1.07,0.12,2.15,0.25,3.18,0.55
		c3.73,1.07,7.42,2.27,11.17,3.3c2.23,0.61,4.54,0.98,6.94,1.49c0.06-0.3,0.13-0.64,0.2-0.98c0.13-0.02,0.26-0.04,0.4-0.06
		c0.26,0.77,0.34,1.71,0.84,2.27c0.36,0.4,1.29,0.29,2.36,0.47c0.03,0.13,0.17,0.71,0.28,1.18c1.72-0.65,3.47-1.32,5.42-2.05
		c0.16,0.86,0.25,1.34,0.33,1.76c0.19,0.07,0.29,0.12,0.3,0.11c1.36-2.05,2.98-0.1,4.47-0.21c1.71-0.13,3.46,0.33,5.37,0.55
		c0-0.76,0-1.46,0-1.91c3.52,0.17,6.95,0.33,10.32,0.49c-0.25,0.16-0.69,0.45-1.37,0.89c0.98,0.11,1.76,0.2,2.59,0.29
		c0.73-1.33,1.51-2.57,3.42-1.9c0.35,0.12,0.88-0.08,1.27-0.25c1.66-0.71,3.1-0.91,4.09,1.07c0.17,0.34,1.15,0.68,1.31,0.54
		c0.56-0.51,0.93-1.23,1.54-2.13c2.35,0.17,5.29-1.51,7.97,0.87c2.06-1.87,4.35-2.6,7.2-2.64c2.6-0.03,5.17-1.25,7.77-1.9
		c2.24-0.56,4.53-1.55,6.75-1.43c2.95,0.16,5.09-1,7.37-2.45c0.77-0.49,2.01-0.63,2.92-0.42c1.58,0.36,2.52-0.48,3.6-1.26
		c0.48-0.35,1.09-0.86,1.57-0.79c1.11,0.15,1.84-0.13,2.89-0.67c5.36-2.78,11.26-4.13,17.04-5.92c-1.69,2.21-2.99,4.72-5.98,5.38
		c-0.46,0.1-0.82,0.55-1.27,0.77c-2.29,1.13-4.55,2.33-6.9,3.31c-1.13,0.47-2.4,0.5-2.98,1.89c-0.14,0.33-0.78,0.53-1.22,0.65
		c-2.26,0.62-4.8,0.74-6.76,1.88c-4.14,2.41-8.4,3.7-13.18,3.86c-3.68,0.12-7.21,1.1-9.94,3.9c-0.2,0.2-0.51,0.37-0.79,0.42
		c-2.19,0.36-4.39,0.71-6.59,1.01c-1.05,0.15-2.11,0.19-3.16,0.29c-0.48,0.05-1.06-0.03-1.42,0.22c-2.14,1.47-4.53,1.47-6.91,1.09
		c-5.04-0.8-9.88-0.42-14.51,1.88c-2.4,1.19-4.95,1.38-7.54,0.76c-4.46-1.08-8.88-0.42-13.27,0.32c-3.59,0.6-6.98,0.16-10.3-1.31
		c-1.48-0.66-3.08-1.05-4.63-1.57c-1.28-0.43-1.55,0.23-1.5,1.33c0.03,0.86-0.02,1.72-0.04,2.58
		C253.84,510.91,253.59,510.91,253.34,510.91z"/>
	<path d="M461.91,311.76c-1.15-0.11-2.29-0.21-3.65-0.34c0.1,0.11-0.06,0.01-0.06-0.08c0.11-2.72-1.89-4.96-1.88-7.53
		c0.01-1.87-0.05-3.56-1.1-5.18c-0.41-0.04-0.94-0.08-1.46-0.12c0-0.09-0.01-0.17-0.01-0.26c0.41-0.07,0.83-0.14,1.24-0.22
		c0.12-0.17,0.24-0.34,0.36-0.51c-0.66-0.61-1.32-1.21-1.97-1.83c-0.2-0.19-0.42-0.38-0.54-0.62c-0.96-1.93-2.05-3.82-2.82-5.82
		c-1.77-4.61-3.78-9.19-4.96-13.96c-1.21-4.84-3.11-9.22-5.78-13.38c-3.7-5.76-7.37-11.56-9.23-18.25
		c-0.21-0.77-0.27-1.78,0.05-2.47c0.91-1.96,0.57-3.73-0.91-4.99c-3.44-2.9-6.05-6.66-9.93-9.09c-2.78-1.74-4.91-4.1-5.26-7.64
		c-0.05-0.48-0.68-0.95-1.12-1.35c-3.49-3.2-7-6.39-10.82-9.86c1.04-0.19,1.56-0.29,2.07-0.38c0.04-0.12,0.08-0.23,0.12-0.35
		c-1.1-0.47-2.17-1.01-3.29-1.39c-1.66-0.56-3.15-1.26-4.37-2.63c-0.49-0.55-1.56-0.73-2.4-0.82c-4.01-0.42-6.02-3.18-8.11-6.62
		c0.82,0.09,1.17,0.13,1.41,0.16c-0.22-0.94-0.32-1.85-0.66-2.67c-0.17-0.41-0.75-0.91-1.15-0.92c-2.12-0.03-2.62-1.31-2.7-3.18
		c0.75,0,1.44,0,2.54,0c-0.85-0.64-1.37-1.03-1.93-1.45c0.37-1,0.73-1.98,1.22-3.3c0.78,0.5,1.73,0.76,1.98,1.34
		c0.51,1.16,1.33,1.34,2.4,1.62c1.11,0.29,2.11,1.04,3.14,1.61c1.3,0.73,2.6,1.47,3.88,2.24c0.35,0.21,0.64,0.5,0.95,0.77
		c1.16,1.03,1.99,2.37,3.66,2.89c0.99,0.3,1.87,1.24,2.6,2.06c1.2,1.36,2.23,2.85,3.43,4.41c-0.35,0.16-0.7,0.32-1.32,0.6
		c1.34,1,2.58,1.91,3.8,2.84c0.89,0.68,1.76,1.4,2.64,2.1c-0.09,0.14-0.17,0.29-0.26,0.43c0.39-0.09,0.78-0.18,1.35-0.31
		c-0.12,0.67-0.21,1.18-0.22,1.24c0.87,0.55,1.54,0.85,2.06,1.32c2.6,2.37,5.22,4.71,7.69,7.21c1.35,1.37,2.41,3.03,3.59,4.56
		c0.23,0.3,0.33,0.75,0.61,0.93c3.74,2.43,5.72,6.41,8.04,9.89c4.17,6.27,7.7,12.99,11.17,19.68c1.72,3.32,2.76,6.99,4.04,10.53
		c0.19,0.53,0.98,1.22-0.4,1.78c-0.89,0.36,0.04,3.68,0.98,4.36c0.55,0.4,0.93,1.08,1.28,1.69c1.01,1.78,1.86,3.67,2.97,5.38
		c1.41,2.17,0.83,4.29,0.27,6.74c2.8,0.4,3.1,2.98,3.3,5.09c0.32,3.41,1.64,6.74,0.77,10.33c-0.29,1.2,0.9,2.72,1.29,4.13
		c0.53,1.91,0.95,3.86,1.42,5.79C461.91,309.25,461.91,310.51,461.91,311.76z"/>
	<path d="M160.27,239.41c0.64-0.03,1.25-0.08,1.86-0.08c23.76,0,47.52,0.02,71.28-0.04c1.58,0,2.26,0.53,2.84,1.93
		c7.91,19.08,15.87,38.13,23.82,57.19c0.28,0.68,0.58,1.35,1.04,2.4c8.71-20.71,17.27-41.06,25.82-61.38c32.33,0,64.56,0,96.86,0
		c-0.45,3.2-0.19,6.08,2.58,8.14c2.04-1.67,2.1-2.37,0.38-4.64c2.08,0.26,3.44-0.75,4.16-2.48c0.45-1.06,1.11-1.15,2.04-1.13
		c2.13,0.04,4.26,0.01,6.66,0.01c-0.3-1.33-0.56-2.51-0.87-3.91c1.62,0,3.19,0,4.85,0c1.38,3.03,1.25,3.45-1.42,5.25
		c-0.35,0.24-0.56,0.91-0.57,1.39c-0.06,2.37-0.03,4.75-0.03,7.05c-1,0.4-1.82,0.74-2.65,1.07c-0.02,0.18-0.05,0.36-0.07,0.54
		c0.87,0.47,1.74,0.94,2.65,1.43c0,0.62,0,1.34,0,2.65c-0.48-1.01-0.72-1.52-1.06-2.25c-0.52,0.55-0.9,1.12-1.43,1.49
		c-0.8,0.56-1.68,1.3-2.58,1.38c-2.26,0.18-2.14,0.02-1.65,2.08c0.51,2.16,0.92,4.35-1.37,6.04c-0.46,0.34-0.2,1.67-0.31,3.03
		c-2.47,2.1-5.64,3.74-9.65,3.34c-0.87-0.09-2.25-0.76-2.68,0.82c-0.43,1.58-1.76,3.24,0.27,4.71c0.25,0.18,0.41,0.47,0.71,0.82
		c-0.56,0.88-1.13,1.76-1.71,2.67c1.58,1.16,0.71,2.06-0.54,3.07c1.39,0.23,2.51,0.34,3.59,0.6c1.8,0.43,3.61,0.88,5.37,1.47
		c1.5,0.5,3.4-0.05,4.84-1.71c-0.5-0.43-0.99-0.86-1.48-1.29c1.83-0.92,3.74-1.62,5.35-2.75c1.61-1.13,2.91-2.69,4.27-3.99
		c0,3.88,0,8.09,0,12.23c-3.12,1.88-6.41,1.96-9.83,1.17c-4.48-1.02-8.95-0.71-13.46-0.1c-2,0.27-4.1-0.01-6.14-0.25
		c-2.4-0.28-4.72-0.44-6.83,1.07c-0.26,0.19-0.69,0.19-1.04,0.19c-0.37,0-0.76-0.2-1.11-0.13c-2.53,0.48-5.56-1.35-7.55,1.71
		c-1.49,2.29-3.55,4.22-3.95,7.15c-0.31,2.23-0.84,4.44-1.38,6.63c-0.49,1.98,0.2,3.45,1.73,4.61c0.95,0.72,2.05,1.26,2.92,2.06
		c0.63,0.58,0.99,1.45,1.47,2.19c-0.77,0.29-1.53,0.64-2.32,0.84c-0.52,0.13-1.1,0.02-1.65,0.02c-0.56,3-1.17,5.81-1.57,8.66
		c-0.28,1.96,0.96,3.71,2.22,3.07c2.18-1.11,3.96,0.51,5.86,0.03c0.84-0.21,1.6-0.77,2.55-1.25c0.93,0.17,2.28,0.56,3.64,0.65
		c3.7,0.25,7.4,0.48,11.11,0.53c2.93,0.04,5.87-0.18,8.8-0.27c0.49-0.01,1.05-0.05,1.48,0.14c3.46,1.52,7.05,0.78,10.61,0.71
		c0.31-0.01,0.63-0.06,0.94-0.07c3.35-0.17,3.66,0.12,3.66,3.37c0,5.06,0,10.12-0.41,15.23c-0.1-0.63-0.35-1.29-0.26-1.9
		c0.32-2.25-0.71-4.19-2.66-5.23c-0.66-0.35-1.06-1.17-1.62-1.74c-0.48-0.49-0.96-1.21-1.55-1.35c-2.73-0.62-5.48-1.17-8.24-1.54
		c-3.98-0.54-8-1.45-11.96-1.24c-6.56,0.34-13.09,1.36-19.6,2.28c-2.17,0.31-3.84,1.61-4.78,3.82c-0.47,1.11-1.72,1.88-2.26,2.98
		c-0.87,1.75-1.44,3.65-2.14,5.49c-1.63,4.31,0.48,8.26,1.29,12.31c0.18,0.9,0.78,1.85,1.45,2.5c2.42,2.38,4.41,5.32,8.21,5.91
		c2.1,0.33,4.06,1.07,6.26,0.24c0.69-0.26,1.74,0.47,2.64,0.72c3.54,0.99,7.06,0.66,10.64,0.06c2.25-0.38,4.64-0.54,6.89-0.23
		c7.32,0.99,14.19-2.39,17.58-8.94c0.08-0.15,0.19-0.27,0.37-0.51c0.08,0.28,0.16,0.43,0.16,0.59c0.01,5.34,0.01,10.68,0.01,16.29
		c-0.8-0.48-1.41-0.86-2.02-1.22c-1.3-0.77-2.56-1.22-3.66,0.36c-0.2,0.28-0.62,0.42-0.94,0.61c-3.29,1.91-3.64,2.65-3.05,6.64
		c0.5,0.06,1.01,0.12,1.91,0.22c-1.8,1.62-2.43,3.34-2.08,5.51c0.19,1.15-2.85,2.78-4.54,2.43c-1.19-0.25-2.34-0.77-3.43-1.33
		c-1.74-0.9-3.45-1.5-5.44-0.83c-0.62,0.21-1.38,0.15-2.05,0.05c-1.27-0.19-2.05-0.73-0.97-2.05c-1.14-1.11-2.3-1.29-3.73-0.56
		c-0.72,0.37-1.68,0.29-2.52,0.42c-0.04-0.23-0.08-0.46-0.12-0.69c1.08-0.25,2.16-0.5,3.45-0.8c-1.68-0.72-3.24-1.54-4.9-2.07
		c-2.44-0.78-4.95-1.29-7.4-2.02c-1.07-0.32-2.03-0.96-3.09-1.34c-0.67-0.24-1.43-0.26-2.43-0.42c0,0.2,0.07-0.38-0.01-0.4
		c-1.87-0.49-3.73-1.1-5.64-1.26c-0.67-0.06-1.46,0.97-2.14,1.56c-0.33,0.28-0.5,0.74-0.84,1.01c-2.11,1.75-2.42,3.73-1.81,6.47
		c0.51,2.3,0.7,4.73,1.09,7.1c0.41,2.5-0.3,5.2-0.66,7.79c-0.2,1.44-0.19,2.63,1.48,3.24c-0.24,0.6-0.45,1.11-0.65,1.6
		c3.26,2.94,6.81,2.92,9.74-0.11c0.39-0.4,0.71-1.07,0.7-1.61c-0.05-3.38-0.16-6.76-0.33-10.13c-0.06-1.14,0.34-1.5,1.41-1.3
		c2.16,0.41,4.31,0.85,6.48,1.17c0.59,0.09,1.23-0.22,2.17-0.41c0.49,1.97,2.56,2.26,4.57,2.86c3.48,1.06,6.86,2.42,10.32,3.54
		c0.99,0.32,2.11,0.22,3.29,0.32c0.01-0.05-0.09,0.44-0.21,1c3.33,1.13,6.55,2.32,9.82,3.3c2.74,0.82,5.48,0.9,8.04-1.7
		c0,6.53,0,12.55,0,18.72c-14.27,0-28.61,0-43.08,0c-0.03-0.41-0.06-0.77-0.08-1.13c-0.16-3.53-1.69-4.62-4.89-3.14
		c-1.85,0.86-3.41,2.31-5.15,3.43c-0.65,0.42-1.42,0.93-2.13,0.94c-12.07,0.05-24.14,0.03-36.21,0.02c-0.12,0-0.24-0.06-0.59-0.16
		c0-38.36,0-76.78,0-115.19c-0.14-0.02-0.28-0.04-0.42-0.05c-1.13,4.41-2.26,8.81-3.39,13.22c-8.52,33.46-17.05,66.91-25.52,100.38
		c-0.37,1.46-0.95,1.86-2.4,1.86c-12.89-0.05-25.77-0.05-38.66,0c-1.39,0.01-1.9-0.41-2.25-1.78
		c-6.34-25.27-12.74-50.52-19.12-75.77c-3.18-12.59-6.35-25.17-9.82-37.75c0,38.31,0,76.62,0,115.1c-15.9,0-31.57,0-47.42,0
		C160.27,360.36,160.27,299.95,160.27,239.41z M356.13,246.03c-1.22,0.66-0.99,0.8-2.96,3.93c-2.42,3.85-2.83,8.11-3.3,12.4
		c-0.4,3.6,0.2,7.05,2.45,9.99c3.26,4.27,7.68,6.96,12.67,8.73c0.87,0.31,1.96-0.02,2.95-0.07c0.24-0.01,0.48-0.07,0.77-0.11
		c-0.22,0.49-0.4,0.9-0.62,1.39c2.54,0,4.93,0.09,7.3-0.03c1.54-0.08,2.93-0.6,2.57-1.95c0.78-1.23,1.82-2.21,1.63-2.7
		c-0.35-0.9-1.31-1.78-2.23-2.18c-2.34-1.03-3.01-1.77-3.07-4.28c-0.04-1.95-1.45-3.13-4.1-3.64c-1.98-0.38-2.54,1-3.29,2.42
		c-3.7-1.33-6.27-4.17-6.58-7.76c-0.3-3.47-0.08-7.6,4.35-9.16c-0.84-1.77-1.61-3.38-2.38-4.99
		C357.8,249.65,357.8,249.65,356.13,246.03z M374.91,265.71c1.22-0.93,2.31-2.3,4.14-1.14c0.18,0.11,0.94-0.24,1.01-0.49
		c0.26-0.99,0.66-2.08,0.46-3.03c-0.55-2.69-1.52-5.31-2.05-8c-0.7-3.62-3.28-5.72-5.76-8.02c-0.67,0.83-1.68,1.5-1.7,2.2
		c-0.12,3.88,0,7.76,0.04,11.64c0.01,1.04-0.09,2.11,0.15,3.1c0.21,0.88,0.68,1.8,1.3,2.44C373.07,265,373.99,265.24,374.91,265.71z
		 M324.92,405.19c-0.18,0.18-0.37,0.35-0.55,0.53c1.49,1.45,2.97,2.9,4.46,4.35c0.21-0.09,0.42-0.17,0.63-0.26
		c0.15-0.6,0.61-1.39,0.38-1.76C328.74,406.25,326.96,405.44,324.92,405.19z M340.1,259.11c1.03,0.92,1.72,1.55,2.41,2.17
		c0.58-0.64,1.7-1.38,1.61-1.91c-0.18-1.04-1.04-1.96-1.61-2.92C341.82,257.21,341.13,257.97,340.1,259.11z M337.92,388.5
		c2.97-1.5,3.06-1.85,1.4-4.78c-0.82,0.67-2,1.18-2.23,1.96C336.86,386.46,337.6,387.52,337.92,388.5z M344.36,278.14
		c-1.33,0.34-2.88,0.57-2.6,2.43c0.1,0.66,1.19,1.74,1.7,1.67C345.18,282,345.41,280.71,344.36,278.14z M368.56,246.41
		c2.9-0.39,3.15-0.79,2.15-3.09c-0.9,0-1.8,0-2.84,0C368.12,244.42,368.33,245.36,368.56,246.41z M364.76,250.68
		c0.83-0.96,1.67-1.5,1.65-2c-0.03-0.58-0.82-1.57-1.28-1.58c-0.63,0-1.65,0.68-1.77,1.23C363.25,248.87,364.07,249.6,364.76,250.68
		z M375.14,270.14c0.64-1.38,1.13-2.37,1.53-3.39c0.04-0.1-0.6-0.66-0.74-0.59c-0.89,0.4-1.74,0.91-2.63,1.41
		C373.94,268.45,374.32,268.99,375.14,270.14z M342.35,286.85c0.6-0.17,1.11-0.15,1.28-0.39c0.46-0.63,0.9-1.34,1.07-2.08
		c0.06-0.28-0.64-0.73-0.99-1.11c-0.45,0.62-1,1.2-1.32,1.88C342.19,285.55,342.35,286.12,342.35,286.85z M337.49,392.83
		c0.87-0.32,1.63-0.37,1.94-0.77c0.39-0.51,0.54-1.3,0.54-1.97c0-0.31-0.61-0.62-0.95-0.92c-0.43,0.48-1,0.89-1.25,1.45
		C337.51,391.17,337.59,391.88,337.49,392.83z M340.5,400.96c1.27,0.26,2.18,0.45,3.1,0.64c0.07-0.19,0.14-0.37,0.21-0.56
		c-0.52-0.8-1.04-1.59-1.69-2.59C341.59,399.29,341.2,399.89,340.5,400.96z M398.58,285.27c-2.2-1.3-2.83-1.13-3.91,1.04
		C396.24,285.89,397.41,285.58,398.58,285.27z M396.31,252.59c0.85-0.67,1.54-1.22,2.23-1.76c-0.44-0.21-0.88-0.62-1.31-0.61
		C396.06,250.24,395.54,250.85,396.31,252.59z M355.88,372.26c-0.96,0.74-1.66,1.27-2.66,2.05c1.27,0.22,2.08,0.36,3.22,0.56
		C356.23,373.88,356.09,373.22,355.88,372.26z"/>
	<path d="M398.63,464.61c1.8-3.42,4.47-5.96,7.94-7.72c-0.18-0.11-0.36-0.23-0.54-0.34c0.45-0.96,0.69-2.12,1.39-2.83
		c2.02-2.05,4.24-3.91,6.36-5.85c0.32-0.29,0.61-0.63,0.84-0.99c5.34-8.28,10.68-16.57,16-24.86c1.08-1.69,2.09-3.43,3.09-5.17
		c1.6-2.8,3-5.63,5.52-7.92c3.08-2.79,4.29-6.9,5.48-10.8c0.72-2.38,2.66-3.69,3.96-5.54c0.49-0.7,0.99-1.4,1.47-2.11
		c0.76-1.13,1.44-2.33,2.31-3.36c0.31-0.36,1.09-0.32,1.65-0.45c-1.52,4.38-2.8,8.5-4.36,12.5c-2.71,6.94-4.95,14.1-9.05,20.44
		c-4.08,6.33-7.93,12.82-12.27,18.96c-5.93,8.4-13,15.82-21.14,22.13c-1.54,1.2-3.45,1.93-5.19,2.86c-1.03,0.55-2.07,1.07-3.11,1.61
		C398.86,464.98,398.75,464.79,398.63,464.61z"/>
	<path d="M376.24,358.19c0.41,0.39,0.66,0.62,0.89,0.84c-0.1,0.13-0.15,0.23-0.17,0.22c-3.81-1.19-8,0.11-11.72-1.78
		c-0.56-0.29-1.3-0.33-1.95-0.31c-4.57,0.08-7.57-3.82-6.68-8.28c0.67-3.37,2.82-5.27,5.73-6.05c3.35-0.89,7.16-2.14,10.27-1.32
		c4.48,1.18,9.04,0.92,13.45,2c2.79,0.68,3.99,2.65,4.65,5.05c0.54,1.93-1.26,5.31-3.14,6.44
		C383.09,357.71,383.09,357.71,376.24,358.19z"/>
	<path d="M401.53,300.64c0.02,0.42,0.06,0.85,0.06,1.27c0,3.57,0,7.13,0,10.47c-5.45,0-10.74-0.01-16.03,0.01
		c-0.81,0-1.63,0.09-2.43,0.23c-2.11,0.39-4.03,0.66-6.33-0.05c-2.66-0.82-5.72-0.29-8.59-0.48c-0.76-0.05-1.71-0.4-2.18-0.94
		c-1.05-1.22-2.03-2.58-2.73-4.03c-1.64-3.44,1.07-7.35,4.87-6.94c4.93,0.54,9.83,0.78,14.78,0.26c0.97-0.1,2.14,0.42,3.03,0.97
		c1.43,0.88,3.03,0.99,4.26-0.28c1.07-1.11,2.28-1.48,3.73-1.32C396.45,300.07,398.92,300.35,401.53,300.64z"/>
	<path d="M409.34,338.16c-1.62-1.82-0.71-3.7-0.18-5.6c2.31-0.28,3.04,1.33,3.36,2.88c0.2,0.97-0.44,2.12-0.77,3.46
		c1.14,0.71,3.09,1.88,2.95,3.98c-0.11,1.65-1.48,3-3.7,2.96c1.39,1.78,1.16,3.3-0.44,4.64
		C407.25,348.15,406.75,343.02,409.34,338.16z"/>
	<path d="M316.64,161.7c-2.23,1.15-4.51,0.43-6.44-2.04c0.77,0.19,1.59,0.26,2.28,0.6c1.09,0.53,5.03-0.36,5.92-1.17
		c0.57-0.52,1.57-0.59,2.37-0.86c0.07,0.18,0.15,0.35,0.22,0.53c-0.53,0.72-1.05,1.44-1.52,2.07c1.1,0.36,2.1,0.89,3.14,0.96
		c0.59,0.04,1.29-0.61,1.82-1.08c0.57-0.5,0.96-1.59,1.52-1.65c1.51-0.17,3.06,0.06,4.74,0.14c-0.52,1.61-0.42,3.17-2.34,3.39
		c-0.21,0.02-0.39,0.95-0.45,1.47c-0.08,0.68-0.02,1.37-0.02,2.48c-1.4-0.64-2.62-1.19-4.06-1.85c-0.19,0.15-0.67,0.51-1.33,1.02
		c0-0.72,0-1.25,0-2.08c-0.78,0.44-1.41,0.8-2.29,1.3C319.27,164.08,318.07,163,316.64,161.7z"/>
	<path d="M409.46,412.29c-1.42,0.38-2.41,0.64-3.75,1c-3.04-0.86-1.7-3.94-2.14-6.13c-0.37-1.86-0.12-3.87,0.03-5.79
		c0.06-0.77,0.62-1.5,1.06-2.51c1.76,1.78,3.4,3.21,3.84,5.62c0.21,1.15,0.06,2.71,1.76,3.19c0.21,0.06,0.43,0.81,0.34,1.15
		C410.25,410.11,409.78,411.36,409.46,412.29z"/>
	<path d="M406.74,361.25c0.22,0.6,0.39,1.08,0.58,1.55c0.68,1.61,1.45,3.19,2.03,4.84c0.47,1.33-1.31,4.12-2.82,4.64
		c-1.39,0.48-2.79-0.38-3.53-2.29c-0.93-2.41-0.61-4.7,1.02-6.7C404.54,362.65,405.36,362.26,406.74,361.25z"/>
	<path d="M411.01,400.41c2.1,1.53,3.44,1.61,4.54,0.33c0.35-0.41,0.23-1.21,0.33-1.83c0.1-0.62,0.06-1.32,0.36-1.83
		c0.24-0.41,0.95-0.51,1.33-0.88c0.33-0.33,0.47-0.84,0.7-1.27c1.99,0.25,2.26,1.8,2.02,3.05c-0.34,1.8-0.96,3.66-1.94,5.19
		c-1.51,2.37-5.72,2.53-8.5,0.61C410.22,402.69,410.59,401.62,411.01,400.41z"/>
	<path d="M405.03,311.96c-0.77-1.02-1.52-1.81-2-2.73c-0.21-0.41-0.08-1.4,0.24-1.62c1.24-0.84,2.61-1.49,3.97-2.13
		c0.04-0.02,0.78,0.94,0.77,1.43c-0.02,0.84-0.19,1.8-0.64,2.47C406.7,310.39,405.74,311.21,405.03,311.96z"/>
	<path d="M412,240.5c-0.36,1.35-0.39,2.16-0.78,2.73c-0.52,0.78-1.38,2.01-1.97,1.94c-1.05-0.13-2.1-0.98-2.94-1.75
		c-0.2-0.18,0.26-1.69,0.69-1.84C408.42,241.08,409.96,240.91,412,240.5z"/>
	<path d="M406.79,267.75c-0.43-3.58-0.44-3.27,2.53-3.88c0.47-0.1,1.52,0.57,1.59,1c0.09,0.61-0.29,1.64-0.79,1.92
		C409.18,267.32,408.02,267.43,406.79,267.75z"/>
	<path d="M425.29,375.09c-0.59,1.25-1.03,2.19-1.55,3.29c-1.45-0.69-2.36-1.67-2.44-3.23c-0.02-0.47,0.35-0.96,0.55-1.45
		C422.96,374.15,424.07,374.6,425.29,375.09z"/>
	<path d="M458.95,366.55c-0.79-0.6-1.37-1.03-2.15-1.62c0.78-1.65,1.54-3.27,2.3-4.89c0.23,0.07,0.47,0.14,0.7,0.21
		C459.53,362.22,459.27,364.18,458.95,366.55z"/>
	<path d="M459.56,356.47c0.13-1.85,0.26-3.7,0.39-5.56c2.13,0.43,2.14,0.89,0.26,5.52C460,356.44,459.78,356.45,459.56,356.47z"/>
	<path d="M460.29,317.17c-1.12-0.93-1.97-1.62-3.21-2.65c1.5-0.1,2.38-0.16,3.43-0.23C460.45,315.18,460.39,315.92,460.29,317.17z"
		/>
	<path class="st0" d="M356.13,246.03c1.67,3.62,1.67,3.62,6.16,1.99c0.76,1.6,1.54,3.22,2.38,4.99c-4.43,1.56-4.65,5.69-4.35,9.16
		c0.31,3.59,2.88,6.44,6.58,7.76c0.75-1.42,1.31-2.8,3.29-2.42c2.65,0.51,4.06,1.69,4.1,3.64c0.06,2.5,0.72,3.24,3.07,4.28
		c0.92,0.41,1.88,1.29,2.23,2.18c0.19,0.49-0.84,1.47-1.63,2.7c0.36,1.35-1.03,1.87-2.57,1.95c-2.37,0.13-4.76,0.03-7.3,0.03
		c0.22-0.49,0.4-0.9,0.62-1.39c-0.29,0.04-0.53,0.1-0.77,0.11c-0.99,0.05-2.08,0.38-2.95,0.07c-4.99-1.77-9.41-4.47-12.67-8.73
		c-2.25-2.94-2.85-6.39-2.45-9.99c0.47-4.29,0.87-8.55,3.3-12.4C355.15,246.84,354.92,246.69,356.13,246.03z"/>
	<path class="st0" d="M374.91,265.71c-0.92-0.47-1.85-0.7-2.41-1.29c-0.62-0.64-1.09-1.56-1.3-2.44c-0.24-0.99-0.14-2.06-0.15-3.1
		c-0.05-3.88-0.16-7.77-0.04-11.64c0.02-0.7,1.03-1.38,1.7-2.2c2.48,2.3,5.06,4.39,5.76,8.02c0.52,2.7,1.49,5.31,2.05,8
		c0.19,0.94-0.2,2.04-0.46,3.03c-0.07,0.25-0.83,0.6-1.01,0.49C377.22,263.41,376.14,264.78,374.91,265.71z"/>
	<path class="st0" d="M364.76,250.68c-0.69-1.09-1.51-1.82-1.4-2.34c0.12-0.55,1.14-1.23,1.77-1.23c0.46,0,1.24,0.99,1.28,1.58
		C366.43,249.18,365.59,249.72,364.76,250.68z"/>
	<path class="st0" d="M375.14,270.14c-0.82-1.15-1.2-1.69-1.84-2.57c0.89-0.49,1.74-1.01,2.63-1.41c0.14-0.06,0.78,0.5,0.74,0.59
		C376.27,267.77,375.78,268.76,375.14,270.14z"/>
	<path class="st0" d="M342.35,286.85c0-0.73-0.16-1.3,0.03-1.69c0.33-0.68,0.87-1.26,1.32-1.88c0.35,0.37,1.05,0.83,0.99,1.11
		c-0.17,0.74-0.61,1.45-1.07,2.08C343.46,286.7,342.95,286.68,342.35,286.85z"/>
</g>
</svg>
