<svg height="512pt" viewBox="0 -11 512 512" width="512pt" xmlns="http://www.w3.org/2000/svg"><path d="m512 0-227.28125 45.121094-41.820312 69.105468-100.464844-103.613281-142.433594 140.078125h127.238281v65.421875l265.492188 273.796875v-221.167968l-28.898438-29.804688zm-314.011719 246.148438.480469-.796876 132.894531-10.753906-56.394531 90.941406zm94.945313-156.886719 57.65625 113.800781-133.042969 10.769531zm76.238281 84.363281-52.851563-104.3125 134.042969-26.613281zm-296.175781-52.816406 54.242187-53.34375v53.34375zm84.125-52.125 69.785156 71.96875-50.421875 83.320312-19.363281-19.96875zm205.726562 212.164062v135.320313l-66.433594-68.511719 51.183594-82.535156zm0 0"/></svg>