<svg height="512pt" viewBox="-115 0 512 512" width="512pt" xmlns="http://www.w3.org/2000/svg"><path d="m212.171875 340.351562c-2.757813-4.789062-8.878906-6.441406-13.675781-3.679687-4.789063 2.761719-6.4375 8.882813-3.679688 13.675781 2.640625 4.585938 4.695313 9.527344 6.101563 14.691406 4.347656 15.96875 2.21875 32.679688-6 47.046876-8.21875 14.367187-21.539063 24.675781-37.511719 29.027343-15.96875 4.347657-32.679688 2.214844-47.046875-6-14.367187-8.21875-24.675781-21.539062-29.023437-37.511719-4.351563-15.96875-2.21875-32.675781 5.996093-47.042968 8.21875-14.371094 21.539063-24.679688 37.511719-29.027344 6.46875-1.761719 13.105469-2.464844 19.726562-2.101562 5.515626.320312 10.246094-3.921876 10.554688-9.445313.304688-5.519531-3.921875-10.246094-9.445312-10.550781-8.769532-.488282-17.550782.445312-26.097657 2.773437-21.132812 5.753907-38.761719 19.394531-49.632812 38.40625-10.875 19.011719-13.691407 41.121094-7.9375 62.253907 5.753906 21.132812 19.394531 38.757812 38.40625 49.632812 12.566406 7.1875 26.484375 10.855469 40.578125 10.851562 7.230468 0 14.511718-.964843 21.675781-2.914062 21.132813-5.757812 38.757813-19.394531 49.632813-38.40625 10.871093-19.011719 13.691406-41.121094 7.9375-62.253906-1.859376-6.816406-4.574219-13.351563-8.070313-19.425782zm0 0"/><path d="m113.882812 347.445312c-1.234374-.644531-2.714843-.972656-4.394531-.972656-1.679687 0-3.15625.328125-4.394531.972656-1.804688.941407-2.183594 2.363282-2.183594 3.390626v45.46875c0 1.023437.375 2.445312 2.167969 3.417968 1.238281.671875 2.722656 1.015625 4.410156 1.015625s3.171875-.34375 4.410157-1.015625c1.789062-.976562 2.167968-2.398437 2.167968-3.417968v-12.597657l1.933594-2.484375 11.441406 17.398438c1.035156 1.664062 2.664063 2.546875 4.710938 2.546875 1.851562 0 3.601562-.664063 5.210937-1.976563 1.667969-1.363281 2.511719-2.910156 2.511719-4.601562 0-.804688-.242188-1.609375-.734375-2.40625l-14.402344-22.058594 11.304688-14.203125c.597656-.839844.902343-1.757813.902343-2.726563 0-1.6875-.855468-3.257812-2.539062-4.667968-1.632812-1.363282-3.332031-2.054688-5.039062-2.054688-1.5625 0-2.863282.695313-3.75 2l-11.550782 16.363282v-14c0-1.027344-.378906-2.449219-2.183594-3.390626zm0 0"/><path d="m148.023438 377.074219v1.070312c0 3.652344 1.359374 6.699219 4.042968 9.074219-2.019531 1.75-3.042968 3.699219-3.042968 5.796875 0 1.785156.609374 3.25 1.8125 4.371094-2.675782 1.914062-4.027344 4.429687-4.027344 7.496093 0 3.558594 1.777344 6.402344 5.289062 8.445313 3.328125 1.9375 7.371094 2.921875 12.011719 2.921875 4.648437 0 8.671875-1.023438 11.960937-3.042969 3.449219-2.113281 5.195313-5.347656 5.195313-9.609375 0-2.777344-.820313-5.074218-2.445313-6.828125-1.578124-1.707031-3.519531-2.875-5.769531-3.472656-2.117187-.558594-4.25-.984375-6.339843-1.273437-2.042969-.28125-3.796876-.589844-5.203126-.914063-.285156-.0625-.515624-.132813-.699218-.195313.902344.113282 1.863281.171876 2.871094.171876 4.554687 0 8.363281-1.21875 11.320312-3.617188 3.023438-2.453125 4.554688-5.589844 4.554688-9.324219v-1.070312c0-2.660157-.785157-5.007813-2.335938-6.992188.257812-.222656.554688-.46875.886719-.734375l1.464843-1.171875c.984376-.863281 1.484376-1.835937 1.484376-2.898437 0-.996094-.503907-1.976563-1.496094-2.910156-.976563-.914063-2.230469-1.378907-3.722656-1.378907-.964844 0-1.863282.460938-2.675782 1.367188-.59375.660156-1.222656 1.746093-1.921875 3.3125-2.273437-.921875-4.808593-1.390625-7.558593-1.390625-4.601563 0-8.382813 1.183594-11.246094 3.511718-2.925782 2.378907-4.410156 5.503907-4.410156 9.285157zm12.726562 0c0-1.308594.300781-2.402344.890625-3.253907.527344-.753906 1.199219-1.105468 2.109375-1.105468.960938 0 1.65625.351562 2.183594 1.105468.589844.851563.890625 1.941407.890625 3.253907v1.070312c0 1.40625-.300781 2.546875-.890625 3.398438-.527344.753906-1.199219 1.105469-2.109375 1.105469-.957031 0-1.648438-.359376-2.175781-1.136719-.597657-.871094-.898438-2.03125-.898438-3.4375zm.5625 23.40625c1.167969.132812 2.125.269531 2.851562.417969.785157.15625 1.605469.382812 2.4375.675781.703126.246093 1.214844.5625 1.523438.941406.28125.34375.417969.789063.417969 1.367187 0 .964844-.402344 1.707032-1.265625 2.332032-.957032.691406-2.0625 1.027344-3.382813 1.027344-1.320312 0-2.425781-.335938-3.378906-1.027344-.863281-.621094-1.265625-1.410156-1.265625-2.476563-.003906-1.40625.65625-2.445312 2.0625-3.257812zm0 0"/><path d="m169.804688 323.972656c.25.601563.550781 1.191406.921874 1.730469.359376.542969.777344 1.0625 1.238282 1.523437.460937.460938.972656.882813 1.523437 1.242188.539063.359375 1.121094.671875 1.734375.921875.597656.25 1.230469.4375 1.871094.570313.640625.128906 1.300781.199218 1.953125.199218.648437 0 1.3125-.070312 1.949219-.199218.644531-.132813 1.273437-.320313 1.875-.570313.609375-.25 1.191406-.5625 1.730468-.921875.550782-.359375 1.0625-.78125 1.523438-1.242188.460938-.460937.882812-.980468 1.242188-1.523437.359374-.539063.671874-1.128906.921874-1.730469.25-.601562.449219-1.230468.570313-1.871094.128906-.640624.199219-1.304687.199219-1.953124 0-.660157-.070313-1.3125-.199219-1.964844-.121094-.628906-.320313-1.261719-.570313-1.871094-.25-.601562-.5625-1.183594-.921874-1.722656-.359376-.550782-.78125-1.0625-1.242188-1.523438-.460938-.460937-.972656-.882812-1.523438-1.25-.539062-.359375-1.121093-.671875-1.730468-.921875-.601563-.25-1.230469-.441406-1.875-.570312-1.289063-.261719-2.609375-.261719-3.902344 0-.640625.128906-1.273438.320312-1.871094.570312-.613281.25-1.195312.5625-1.734375.921875-.550781.367188-1.0625.789063-1.523437 1.25-.460938.460938-.878906.972656-1.238282 1.523438-.371093.539062-.671874 1.121094-.921874 1.722656-.25.609375-.453126 1.242188-.570313 1.871094-.132813.652344-.199219 1.304687-.199219 1.964844 0 .648437.066406 1.3125.199219 1.953124.117187.640626.320313 1.269532.570313 1.871094zm0 0"/><path d="m243.597656 305.972656 8.347656-49.136718c3.859376-22.707032-2.449218-45.824219-17.308593-63.417969-3.101563-3.679688-6.578125-7.085938-10.367188-10.167969v-41.847656c0-9.609375-2.488281-19.132813-7.195312-27.550782l-9.6875-17.3125c-2.222657-3.960937-3.394531-8.460937-3.394531-13.003906v-4.496094c8.019531-2.058593 13.976562-9.332031 13.976562-17.988281v-14.898437c0-8.65625-5.957031-15.925782-13.976562-17.984375v-18.152344c0-5.53125-4.484376-10.015625-10.015626-10.015625h-78.175781c-5.53125 0-10.015625 4.484375-10.015625 10.015625v17.640625c-9.4375.875-16.851562 8.832031-16.851562 18.496094v14.898437c0 9.03125 6.476562 16.570313 15.027344 18.238281-1.441407 3.621094-3.695313 6.910157-6.648438 9.570313l-17.433594 15.742187c-13.605468 12.28125-21.40625 29.839844-21.40625 48.167969v30.105469c-.371094.296875-.75.585938-1.109375.886719-.382812.3125-.761719.628906-1.089843.917969-.421876.359374-.839844.722656-1.25 1.09375-.710938.636718-1.382813 1.261718-2.042969 1.90625-.226563.214843-.445313.433593-.664063.652343l-.070312.070313c-.539063.53125-1.0625 1.070312-1.589844 1.621094l-.085938.085937c-.074218.074219-.144531.152344-.214843.230469l-.144531.15625c-.148438.160156-.292969.320312-.4375.480468-.753907.804688-1.484376 1.632813-2.15625 2.433594-14.863282 17.597656-21.175782 40.71875-17.316407 63.425782l8.347657 49.136718c-24.964844 26.3125-38.648438 60.558594-38.648438 97.019532 0 37.570312 14.429688 66.171874 42.890625 85 24.074219 15.929687 57.125 24.007812 98.234375 24.007812 41.105469 0 74.15625-8.074219 98.230469-24.007812 28.460937-18.828126 42.890625-47.425782 42.890625-85 0-36.460938-13.683594-70.707032-38.648438-97.019532zm-42.179687-57.71875-4.28125 25.1875c-17.59375-7.601562-36.710938-11.574218-56.011719-11.574218s-38.417969 3.972656-56.011719 11.574218l-4.28125-25.179687c-1.285156-7.589844.742188-15.300781 5.566407-21.304688 1.605468.253907 3.234374.390625 4.882812.40625 1.101562 1.898438 2.800781 3.40625 4.847656 4.25 4.328125 6.816407 11.839844 10.96875 19.953125 10.96875.523438 0 1.050781-.019531 1.582031-.054687l62.566407-4.214844c4.53125-.304688 8.996093-1.167969 13.289062-2.570312 2.101563-.691407 4.148438-1.511719 6.136719-2.441407 1.984375 4.664063 2.628906 9.839844 1.761719 14.953125zm-92.457031-188.644531v-12.015625h88.980468v12.015625zm16.851562-39.582031h58.148438v7.539062h-58.148438zm-47.3125 132.742187c0-12.695312 5.375-24.796875 14.800781-33.304687l17.425781-15.734375c7.113282-6.410157 11.976563-14.875 14.011719-24.09375h59.226563v3.898437c0 7.964844 2.058594 15.851563 5.949218 22.792969l9.683594 17.300781c3.039063 5.433594 4.644532 11.578125 4.644532 17.773438v54.886718c0 .375-.015626.742188-.03125 1.109376 0 .003906-.003907.011718-.003907.019531v.015625c-.015625.164062-.027343.332031-.035156.503906-.007813.078125-.015625.15625-.023437.230469l-.046876.480469c-.015624.121093-.027343.25-.058593.441406-.042969.300781-.089844.601562-.152344.902344 0 .007812 0 .015624-.003906.023437l-.144531.695313c-.019532.082031-.042969.164062-.0625.246093l-.078126.308594c-.011718.035156-.019531.074219-.027343.109375-.125.488281-.28125.996094-.503907 1.625-.054687.144531-.109374.292969-.167968.449219l-.078125.191406c-.007813.027344-.019531.054687-.03125.082031l-.242188.570313c-.039062.101562-.089843.199219-.144531.320312-.21875.464844-.453125.921875-.691406 1.367188l-.179688.300781-.398437.65625c-.171875.269531-.351563.539062-.535157.804688-.082031.105468-.160156.214843-.242187.320312l-.113281.160156c-.105469.136719-.210938.273438-.324219.410156-.066406.082032-.121094.152344-.1875.234376l-.621094.730468c-.117187.128906-.238281.253906-.363281.386719-.003906.007813-.011719.011719-.015625.019531-.617187.644532-1.316406 1.28125-2.082031 1.890625-.027344.019531-.050782.042969-.074219.0625-.503906.390625-1.019531.761719-1.5625 1.105469-2.394531 1.519531-5 2.75-7.726563 3.648438-2.699218.878906-5.527343 1.425781-8.402343 1.617187l-62.554688 4.214844c-1.453125.097656-2.820312-.675781-3.484375-1.972657-1.894531-3.703124-2.882812-7.800781-2.882812-11.957031v-41.183593c0-5.332032-4.023438-9.992188-9.347656-10.335938-5.832032-.378906-10.679688 4.242188-10.679688 9.992188v.578124c-.335938.078126-.671875.15625-1.007812.238282-.359376.085937-.714844.175781-1.070313.269531-.460937.117187-.921875.238281-1.382813.367187-.355468.097657-.710937.199219-1.066406.300782-.457031.136718-.914062.273437-1.367187.414062-.351563.109375-.703125.222656-1.050781.335938-.457032.152344-.910157.304687-1.367188.464844-.34375.117187-.683594.238281-1.023438.359374-.703124.257813-1.398437.527344-2.09375.796876-.003906-.003907-.003906-.003907-.007812-.003907zm149.808594 318.523438c-20.449219 13.527343-50.597656 20.679687-87.183594 20.679687s-66.734375-7.152344-87.183594-20.679687c-22.5-14.890625-33.910156-37.867188-33.910156-68.300781 0-32.804688 12.910156-63.523438 36.355469-86.496094 2.34375-2.296875 3.414062-5.59375 2.867187-8.828125l-9.203125-54.1875c-2.871093-16.878907 1.820313-34.0625 12.894531-47.179688.488282-.582031 1.003907-1.160156 1.53125-1.71875.105469-.109375.199219-.214843.296876-.332031l.300781-.324219v-.003906c.417969-.433594.824219-.855469 1.25-1.273437.027343-.023438.050781-.050782.078125-.078126l.257812-.257812c.085938-.078125.167969-.15625.25-.238281.480469-.472657.96875-.929688 1.472656-1.378907.035157-.03125.070313-.0625.101563-.09375.273437-.25.558594-.488281.898437-.78125.210938-.183593.421876-.359374.632813-.53125.050781-.042968.101563-.085937.15625-.128906 1.195313-1.003906 2.460937-1.976562 3.78125-2.898437l.054687-.042969c.066407-.042969.128907-.085938.191407-.128906 4.828125-3.355469 10.148437-5.949219 15.734375-7.699219v11.882813c-.589844.234374-1.175782.484374-1.753906.742187-.214844.097656-.425782.203125-.640626.300781-.363281.167969-.726562.332032-1.082031.511719-.246093.121094-.492187.253906-.738281.382813-.316406.164062-.636719.324218-.953125.496093-.257813.144531-.507813.292969-.761719.441407-.300781.167968-.597656.335937-.890625.511718-.257812.15625-.511719.320313-.765625.476563-.285156.179687-.570312.355469-.851562.539062-.257813.167969-.507813.347657-.757813.523438-.273437.1875-.546875.371093-.816406.5625-.253906.183593-.503906.375-.753906.5625-.257813.195312-.519531.386719-.773438.585937-.253906.199219-.5.40625-.753906.609375-.207031.171875-.417969.335938-.625.511719-.167969.132812-.332031.269531-.492187.414062-.820313.71875-1.613282 1.460938-2.359376 2.203126-.09375.089843-.1875.183593-.277343.273437-.910157.929687-1.707031 1.800781-2.40625 2.636719-8.910157 10.554687-12.699219 24.421875-10.390625 38.050781l6.527344 38.410156c.542968 3.203125 2.609374 5.945313 5.539062 7.351563 2.933594 1.40625 6.363281 1.304687 9.203125-.277344 17.871094-9.941406 38.195313-15.199219 58.765625-15.199219 20.574219 0 40.898438 5.253907 58.769531 15.199219 2.839844 1.582031 6.269531 1.683594 9.199219.277344s4.996094-4.148438 5.542969-7.351563l6.527343-38.417969c1.808594-10.675781-.128906-21.503906-5.339843-30.769531.117187-.152343.234375-.308593.351562-.46875.222657-.285156.4375-.578125.648438-.878906 0 0 0 0 .003906-.003906 0 0 0-.003907.003906-.007813.007813-.011718.015625-.023437.027344-.035156.441406-.609375.863281-1.242188 1.226563-1.832031.109374-.171875.214843-.34375.320312-.519531l.132812-.214844c.046876-.078125.09375-.15625.140626-.234375l.203124-.339844c.03125-.058594.070313-.117187.105469-.175781l.070313-.128906c.058594-.097657.117187-.195313.171875-.296876.414062-.761718.8125-1.546874 1.179687-2.320312.015625-.03125.035156-.0625.046875-.09375.019531-.03125.03125-.066406.046875-.097656.003906 0 .003906-.003906.003906-.003906.003907-.007813.003907-.011719.007813-.019532.171875-.355468.339844-.726562.515625-1.144531l.195312-.46875c.101563-.234375.203126-.488281.308594-.761719.003906-.007812.003906-.011718.007813-.019531.003906-.007813.003906-.011719.007812-.015625.007813-.027344.019531-.050781.03125-.078125.117188-.3125.234375-.617187.332031-.902344.011719-.03125.027344-.0625.039063-.09375 9.15625 12.589844 12.878906 28.328125 10.25 43.808594l-9.203125 54.183594c-.550781 3.234375.519531 6.53125 2.863281 8.828125 23.445313 22.972656 36.359375 53.691406 36.359375 86.496094-.003906 30.429687-11.414062 53.410156-33.914062 68.300781zm0 0"/></svg>